<svg width="37" height="32" viewBox="0 0 37 32" fill="none" xmlns="http://www.w3.org/2000/svg">
<path d="M36 14.4718H1M23.5 14.4718V16.2843C23.5 16.4446 23.4342 16.5983 23.3169 16.7116C23.1997 16.8249 23.0408 16.8885 22.875 16.8885H14.125C13.9592 16.8885 13.8003 16.8249 13.6831 16.7116C13.5658 16.5983 13.5 16.4446 13.5 16.2843V14.4718M4.75 6.01351H32.25C34.3211 6.01351 36 7.63648 36 9.63851V26.5552C36 28.5572 34.3211 30.1802 32.25 30.1802H4.75C2.67893 30.1802 1 28.5572 1 26.5552V9.63851C1 7.63648 2.67893 6.01351 4.75 6.01351ZM9.75 6.01351V3.59684C9.75 2.9559 10.0134 2.34121 10.4822 1.888C10.9511 1.43479 11.587 1.18018 12.25 1.18018H24.75C25.413 1.18018 26.0489 1.43479 26.5178 1.888C26.9866 2.34121 27.25 2.9559 27.25 3.59684V6.01351H9.75Z" stroke="white" stroke-width="2" stroke-linecap="round" stroke-linejoin="round"/>
</svg>
