<svg width="64" height="76" viewBox="0 0 64 76" fill="none" xmlns="http://www.w3.org/2000/svg">
<path d="M48.8953 72.4997H15.1037C8.88314 72.4997 3.83984 67.4544 3.83984 61.2314V36.686C3.83984 33.3039 6.5806 30.562 9.96137 30.562H54.0364C57.4171 30.562 60.1579 33.3039 60.1579 36.686V61.2314C60.1591 67.4544 55.1158 72.4997 48.8953 72.4997Z" stroke="#E1B168" stroke-width="6" stroke-miterlimit="10"/>
<path d="M13.6367 28.4627V21.8719C13.6367 11.7256 21.859 3.5 32.0013 3.5C42.1436 3.5 50.3659 11.7256 50.3659 21.8719V28.4627" stroke="#E1B168" stroke-width="6" stroke-miterlimit="10"/>
<path d="M32 49.1792V59.5658" stroke="#E1B168" stroke-width="6" stroke-miterlimit="10" stroke-linecap="round"/>
<path d="M31.9992 49.1269C33.7699 49.1269 35.2054 47.6909 35.2054 45.9194C35.2054 44.148 33.7699 42.7119 31.9992 42.7119C30.2284 42.7119 28.793 44.148 28.793 45.9194C28.793 47.6909 30.2284 49.1269 31.9992 49.1269Z" stroke="#E1B168" stroke-width="6" stroke-miterlimit="10" stroke-linecap="round"/>
</svg>
