<svg width="28" height="27" viewBox="0 0 28 27" fill="none" xmlns="http://www.w3.org/2000/svg">
<path d="M25.1991 20.4467C24.2641 19.5046 21.9995 18.1297 20.9008 17.5757C19.47 16.855 19.3522 16.7961 18.2276 17.6316C17.4774 18.1892 16.9787 18.6873 16.1008 18.5001C15.2229 18.3129 13.3151 17.2571 11.6447 15.592C9.97424 13.9268 8.85727 11.9637 8.66944 11.0887C8.48161 10.2138 8.98798 9.72094 9.54029 8.96903C10.3187 7.90918 10.2598 7.73253 9.59446 6.30173C9.07571 5.18888 7.66081 2.94551 6.71518 2.01519C5.7036 1.01598 5.7036 1.19263 5.05179 1.46348C4.52114 1.68675 4.01205 1.95815 3.5309 2.27427C2.5888 2.90018 2.06594 3.42009 1.70029 4.20144C1.33464 4.98279 1.17036 6.81458 3.05867 10.245C4.94698 13.6754 6.2718 15.4295 9.01389 18.1639C11.756 20.8983 13.8645 22.3686 16.9469 24.0973C20.7601 26.2329 22.2227 25.8166 23.0064 25.4516C23.7901 25.0865 24.3123 24.5684 24.9394 23.6263C25.2564 23.1459 25.5284 22.6374 25.752 22.1071C26.0234 21.4577 26.2001 21.4577 25.1991 20.4467Z" stroke="#E1B168" stroke-width="2.1" stroke-miterlimit="10"/>
</svg>
