<svg width="18" height="18" viewBox="0 0 18 18" fill="none" xmlns="http://www.w3.org/2000/svg">
<path d="M12.4588 1.87667C13.4298 1.87946 14.3602 2.25216 15.0469 2.91335C15.7335 3.57455 16.1205 4.47052 16.1234 5.40559V12.4627C16.1205 13.3977 15.7335 14.2937 15.0469 14.9549C14.3602 15.6161 13.4298 15.9888 12.4588 15.9916H5.13026C4.15923 15.9888 3.2288 15.6161 2.54217 14.9549C1.85555 14.2937 1.46852 13.3977 1.46562 12.4627V5.40559C1.46852 4.47052 1.85555 3.57455 2.54217 2.91335C3.2288 2.25216 4.15923 1.87946 5.13026 1.87667H12.4588ZM12.4588 0.465332H5.13026C2.30856 0.465332 0 2.68839 0 5.40559V12.4627C0 15.1799 2.30856 17.4029 5.13026 17.4029H12.4588C15.2805 17.4029 17.589 15.1799 17.589 12.4627V5.40559C17.589 2.68839 15.2805 0.465332 12.4588 0.465332Z" fill="#E1B168"/>
<path d="M13.5583 5.40577C13.3409 5.40577 13.1283 5.34369 12.9475 5.22737C12.7668 5.11105 12.6259 4.94572 12.5426 4.75228C12.4594 4.55885 12.4377 4.346 12.4801 4.14065C12.5225 3.9353 12.6272 3.74668 12.781 3.59863C12.9347 3.45058 13.1306 3.34976 13.3438 3.30892C13.5571 3.26807 13.7781 3.28903 13.979 3.36916C14.1798 3.44928 14.3515 3.58496 14.4723 3.75905C14.5931 3.93313 14.6576 4.1378 14.6576 4.34717C14.6579 4.48627 14.6297 4.62407 14.5745 4.75264C14.5194 4.88121 14.4385 4.99802 14.3363 5.09638C14.2342 5.19474 14.1129 5.27271 13.9793 5.3258C13.8458 5.37889 13.7027 5.40607 13.5583 5.40577ZM8.79472 6.11125C9.37454 6.11125 9.94134 6.27682 10.4234 6.58702C10.9056 6.89723 11.2813 7.33813 11.5032 7.85397C11.7251 8.36982 11.7831 8.93744 11.67 9.48506C11.5569 10.0327 11.2777 10.5357 10.8677 10.9305C10.4577 11.3253 9.93533 11.5942 9.36665 11.7031C8.79797 11.8121 8.20852 11.7561 7.67283 11.5425C7.13714 11.3288 6.67929 10.967 6.35715 10.5027C6.03502 10.0385 5.86308 9.49266 5.86308 8.93431C5.86392 8.18583 6.17305 7.46824 6.72266 6.93899C7.27227 6.40974 8.01746 6.11205 8.79472 6.11125ZM8.79472 4.69991C7.92502 4.69991 7.07486 4.94826 6.35173 5.41354C5.62861 5.87882 5.065 6.54014 4.73218 7.31388C4.39937 8.08761 4.31229 8.93901 4.48195 9.7604C4.65162 10.5818 5.07042 11.3363 5.68539 11.9285C6.30036 12.5207 7.08387 12.924 7.93686 13.0873C8.78984 13.2507 9.67398 13.1669 10.4775 12.8464C11.281 12.5259 11.9677 11.9832 12.4509 11.2868C12.9341 10.5905 13.192 9.77179 13.192 8.93431C13.192 7.81128 12.7287 6.73424 11.904 5.94014C11.0794 5.14604 9.96094 4.69991 8.79472 4.69991Z" fill="#E1B168"/>
</svg>
