<svg width="117" height="18" viewBox="0 0 117 18" fill="none" xmlns="http://www.w3.org/2000/svg">
<path d="M12.4588 1.87667C13.4298 1.87946 14.3602 2.25216 15.0469 2.91335C15.7335 3.57455 16.1205 4.47052 16.1234 5.40559V12.4627C16.1205 13.3977 15.7335 14.2937 15.0469 14.9549C14.3602 15.6161 13.4298 15.9888 12.4588 15.9916H5.13026C4.15923 15.9888 3.2288 15.6161 2.54217 14.9549C1.85555 14.2937 1.46852 13.3977 1.46562 12.4627V5.40559C1.46852 4.47052 1.85555 3.57455 2.54217 2.91335C3.2288 2.25216 4.15923 1.87946 5.13026 1.87667H12.4588ZM12.4588 0.465332H5.13026C2.30856 0.465332 0 2.68839 0 5.40559V12.4627C0 15.1799 2.30856 17.4029 5.13026 17.4029H12.4588C15.2805 17.4029 17.589 15.1799 17.589 12.4627V5.40559C17.589 2.68839 15.2805 0.465332 12.4588 0.465332Z" fill="#E1B168"/>
<path d="M13.5583 5.40577C13.3409 5.40577 13.1283 5.34369 12.9475 5.22737C12.7668 5.11105 12.6259 4.94572 12.5426 4.75228C12.4594 4.55885 12.4377 4.346 12.4801 4.14065C12.5225 3.9353 12.6272 3.74668 12.781 3.59863C12.9347 3.45058 13.1306 3.34976 13.3438 3.30892C13.5571 3.26807 13.7781 3.28903 13.979 3.36916C14.1798 3.44928 14.3515 3.58496 14.4723 3.75905C14.5931 3.93313 14.6576 4.1378 14.6576 4.34717C14.6579 4.48627 14.6297 4.62407 14.5745 4.75264C14.5194 4.88121 14.4385 4.99802 14.3363 5.09638C14.2342 5.19474 14.1129 5.27271 13.9793 5.3258C13.8458 5.37889 13.7027 5.40607 13.5583 5.40577ZM8.79472 6.11125C9.37454 6.11125 9.94134 6.27682 10.4234 6.58702C10.9056 6.89723 11.2813 7.33813 11.5032 7.85397C11.7251 8.36982 11.7831 8.93744 11.67 9.48506C11.5569 10.0327 11.2777 10.5357 10.8677 10.9305C10.4577 11.3253 9.93533 11.5942 9.36665 11.7031C8.79797 11.8121 8.20852 11.7561 7.67283 11.5425C7.13714 11.3288 6.67929 10.967 6.35715 10.5027C6.03502 10.0385 5.86308 9.49266 5.86308 8.93431C5.86392 8.18583 6.17305 7.46824 6.72266 6.93899C7.27227 6.40974 8.01746 6.11205 8.79472 6.11125ZM8.79472 4.69991C7.92502 4.69991 7.07486 4.94826 6.35173 5.41354C5.62861 5.87882 5.065 6.54014 4.73218 7.31388C4.39937 8.08761 4.31229 8.93901 4.48195 9.7604C4.65162 10.5818 5.07042 11.3363 5.68539 11.9285C6.30036 12.5207 7.08387 12.924 7.93686 13.0873C8.78984 13.2507 9.67398 13.1669 10.4775 12.8464C11.281 12.5259 11.9677 11.9832 12.4509 11.2868C12.9341 10.5905 13.192 9.77179 13.192 8.93431C13.192 7.81128 12.7287 6.73424 11.904 5.94014C11.0794 5.14604 9.96094 4.69991 8.79472 4.69991Z" fill="#E1B168"/>
<path fill-rule="evenodd" clip-rule="evenodd" d="M50.1779 8.98491C50.1779 4.30817 46.24 0.516113 41.3834 0.516113C36.5268 0.516113 32.5889 4.30817 32.5889 8.98491C32.5889 13.2117 35.8044 16.7153 40.0092 17.3512V11.4337H37.7757V8.98491H40.0092V7.11912C40.0092 4.99701 41.3225 3.82386 43.3311 3.82386C44.2934 3.82386 45.3001 3.98945 45.3001 3.98945V6.07376H44.1906C43.0987 6.07376 42.7571 6.72631 42.7571 7.39701V8.98491H45.196L44.8066 11.4337H42.7575V17.352C46.9624 16.7165 50.1779 13.2129 50.1779 8.98491Z" fill="#E1B168"/>
<path d="M84.0236 3.18239C83.3167 3.48955 82.5687 3.69191 81.8034 3.78308C82.6077 3.3121 83.2126 2.56385 83.5046 1.67868C82.7441 2.12335 81.9135 2.43535 81.0484 2.60132C80.6841 2.21952 80.2459 1.91578 79.7606 1.70858C79.2753 1.50137 78.7528 1.39503 78.2251 1.396C76.0885 1.396 74.3595 3.09994 74.3595 5.20041C74.3579 5.49258 74.3914 5.78388 74.4592 6.06809C72.9271 5.99626 71.4269 5.60543 70.0545 4.92058C68.6821 4.23574 67.4677 3.27197 66.4892 2.09093C66.1458 2.66968 65.9643 3.33003 65.9634 4.00295C65.9634 5.32212 66.6517 6.48818 67.6909 7.17133C67.0752 7.15671 66.4721 6.99375 65.9328 6.69627V6.74338C65.9328 8.58866 67.2677 10.1238 69.0345 10.4732C68.7022 10.5618 68.3599 10.6066 68.016 10.6067C67.772 10.6071 67.5286 10.5834 67.2893 10.536C67.7805 12.0476 69.21 13.1469 70.9033 13.1783C69.5273 14.2387 67.838 14.8119 66.1009 14.8076C65.7925 14.8072 65.4844 14.7888 65.1782 14.7527C66.9454 15.8811 68.9997 16.478 71.0965 16.4723C78.2169 16.4723 82.1069 10.6734 82.1069 5.64407C82.1069 5.47917 82.1026 5.31427 82.0947 5.1533C82.8497 4.61623 83.5029 3.94881 84.0236 3.18239Z" fill="#E1B168"/>
<path d="M107.96 0C103.025 0 99.0234 3.99952 99.0234 8.93212C99.0234 12.5887 101.226 15.7309 104.373 17.1146C104.349 16.4925 104.369 15.7429 104.529 15.065C104.7 14.3392 105.678 10.1962 105.678 10.1962C105.678 10.1962 105.39 9.62595 105.39 8.78458C105.39 7.46071 106.156 6.4718 107.114 6.4718C107.928 6.4718 108.319 7.08189 108.319 7.81161C108.319 8.62906 107.796 9.84925 107.529 10.9817C107.305 11.9308 108.003 12.7004 108.941 12.7004C110.632 12.7004 111.773 10.5271 111.773 7.95118C111.773 5.99329 110.453 4.52986 108.055 4.52986C105.347 4.52986 103.655 6.55155 103.655 8.8085C103.655 9.58608 103.886 10.1364 104.245 10.559C104.409 10.7544 104.433 10.8342 104.373 11.0575C104.329 11.221 104.234 11.6157 104.19 11.7752C104.13 12.0025 103.946 12.0823 103.743 11.9985C102.494 11.4881 101.912 10.1244 101.912 8.5852C101.912 6.04912 104.054 3.00661 108.299 3.00661C111.71 3.00661 113.956 5.47491 113.956 8.12264C113.956 11.6277 112.005 14.2435 109.132 14.2435C108.167 14.2435 107.261 13.7212 106.95 13.131C106.95 13.131 106.432 15.1886 106.32 15.5873C106.132 16.2772 105.761 16.963 105.422 17.5014C106.245 17.7439 107.098 17.8675 107.956 17.8682C112.89 17.8682 116.892 13.8687 116.892 8.9361C116.892 4.0035 112.894 0 107.96 0Z" fill="#E1B168"/>
</svg>
