<svg width="158" height="25" viewBox="0 0 158 25" fill="none" xmlns="http://www.w3.org/2000/svg">
<path d="M17.3386 3.10221C18.651 3.10596 19.9085 3.60655 20.8366 4.49464C21.7646 5.38274 22.2876 6.58618 22.2916 7.84213V17.321C22.2876 18.5769 21.7646 19.7803 20.8366 20.6684C19.9085 21.5565 18.651 22.0571 17.3386 22.0609H7.4338C6.1214 22.0571 4.86388 21.5565 3.93587 20.6684C3.00786 19.7803 2.48478 18.5769 2.48086 17.321V7.84213C2.48478 6.58618 3.00786 5.38274 3.93587 4.49464C4.86388 3.60655 6.1214 3.10596 7.4338 3.10221H17.3386ZM17.3386 1.20654H7.4338C3.62013 1.20654 0.5 4.19248 0.5 7.84213V17.321C0.5 20.9706 3.62013 23.9565 7.4338 23.9565H17.3386C21.1523 23.9565 24.2724 20.9706 24.2724 17.321V7.84213C24.2724 4.19248 21.1523 1.20654 17.3386 1.20654Z" fill="white"/>
<path d="M18.8247 7.84229C18.5308 7.84229 18.2435 7.75889 17.9992 7.60266C17.7549 7.44642 17.5644 7.22435 17.452 6.96454C17.3395 6.70472 17.3101 6.41883 17.3674 6.14302C17.4248 5.8672 17.5663 5.61385 17.7741 5.41499C17.9818 5.21614 18.2466 5.08072 18.5348 5.02586C18.823 4.97099 19.1217 4.99915 19.3932 5.10677C19.6647 5.21439 19.8968 5.39663 20.06 5.63046C20.2233 5.86429 20.3104 6.13919 20.3104 6.42041C20.3108 6.60725 20.2727 6.79232 20.1982 6.96501C20.1237 7.1377 20.0142 7.29461 19.8762 7.42672C19.7381 7.55884 19.5742 7.66356 19.3937 7.73487C19.2133 7.80618 19.0199 7.84269 18.8247 7.84229ZM12.3865 8.78986C13.1701 8.78986 13.9362 9.01225 14.5878 9.4289C15.2394 9.84556 15.7472 10.4378 16.0471 11.1306C16.347 11.8235 16.4255 12.5859 16.2726 13.3215C16.1197 14.057 15.7423 14.7326 15.1882 15.2629C14.6341 15.7932 13.9281 16.1544 13.1595 16.3007C12.3909 16.447 11.5942 16.3719 10.8702 16.0849C10.1462 15.7979 9.52736 15.3119 9.09198 14.6883C8.6566 14.0648 8.42422 13.3317 8.42422 12.5817C8.42534 11.5764 8.84315 10.6125 9.58598 9.90165C10.3288 9.19078 11.336 8.79094 12.3865 8.78986ZM12.3865 6.8942C11.211 6.8942 10.062 7.22777 9.08465 7.85272C8.10732 8.47767 7.34557 9.36593 6.89575 10.4052C6.44593 11.4444 6.32824 12.588 6.55756 13.6913C6.78687 14.7945 7.3529 15.808 8.18406 16.6034C9.01522 17.3988 10.0742 17.9405 11.227 18.1599C12.3799 18.3794 13.5748 18.2667 14.6608 17.8363C15.7468 17.4058 16.6749 16.6768 17.328 15.7415C17.981 14.8062 18.3296 13.7066 18.3296 12.5817C18.3296 11.0733 17.7034 9.62664 16.5889 8.56003C15.4743 7.49342 13.9627 6.8942 12.3865 6.8942Z" fill="white"/>
<path fill-rule="evenodd" clip-rule="evenodd" d="M68.0439 12.6499C68.0439 6.36826 62.7216 1.2749 56.1577 1.2749C49.5937 1.2749 44.2715 6.36826 44.2715 12.6499C44.2715 18.3272 48.6174 23.0331 54.3005 23.8873V15.939H51.2817V12.6499H54.3005V10.1438C54.3005 7.2935 56.0754 5.71775 58.7902 5.71775C60.0908 5.71775 61.4513 5.94018 61.4513 5.94018V8.73975H59.9517C58.476 8.73975 58.0144 9.61623 58.0144 10.5171V12.6499H61.3107L60.7843 15.939H58.0149V23.8883C63.698 23.0347 68.0439 18.3288 68.0439 12.6499Z" fill="white"/>
<path d="M113.515 4.85597C112.56 5.26853 111.549 5.54034 110.515 5.6628C111.602 5.03019 112.419 4.02517 112.814 2.83624C111.786 3.4335 110.664 3.85257 109.494 4.0755C109.002 3.56267 108.41 3.1547 107.754 2.87639C107.098 2.59808 106.392 2.45524 105.678 2.45655C102.791 2.45655 100.454 4.74522 100.454 7.56651C100.452 7.95894 100.497 8.3502 100.589 8.73194C98.5179 8.63547 96.4902 8.11051 94.6354 7.19065C92.7805 6.27079 91.1393 4.97628 89.8167 3.38995C89.3527 4.16732 89.1073 5.05427 89.1062 5.95811C89.1062 7.72999 90.0364 9.2962 91.441 10.2138C90.6088 10.1941 89.7937 9.97526 89.0648 9.57569V9.63897C89.0648 12.1175 90.869 14.1794 93.2568 14.6487C92.8078 14.7677 92.3451 14.828 91.8803 14.828C91.5506 14.8286 91.2216 14.7968 90.8981 14.7331C91.562 16.7634 93.494 18.2399 95.7826 18.2821C93.923 19.7064 91.6398 20.4763 89.2919 20.4706C88.8752 20.47 88.4588 20.4453 88.0449 20.3968C90.4334 21.9125 93.2098 22.7142 96.0437 22.7065C105.667 22.7065 110.925 14.9177 110.925 8.16241C110.925 7.94093 110.919 7.71944 110.908 7.50323C111.929 6.78186 112.812 5.8854 113.515 4.85597Z" fill="white"/>
<path d="M145.593 0.581543C138.924 0.581543 133.516 5.95356 133.516 12.5789C133.516 17.4903 136.492 21.7108 140.746 23.5693C140.714 22.7337 140.741 21.7268 140.956 20.8163C141.188 19.8415 142.509 14.2767 142.509 14.2767C142.509 14.2767 142.121 13.5108 142.121 12.3807C142.121 10.6025 143.156 9.27425 144.45 9.27425C145.55 9.27425 146.078 10.0937 146.078 11.0738C146.078 12.1718 145.372 13.8107 145.011 15.3318C144.709 16.6065 145.653 17.6402 146.92 17.6402C149.206 17.6402 150.748 14.7212 150.748 11.2613C150.748 8.63153 148.963 6.6659 145.723 6.6659C142.062 6.6659 139.775 9.38136 139.775 12.4128C139.775 13.4572 140.088 14.1964 140.573 14.7641C140.795 15.0265 140.827 15.1337 140.746 15.4336C140.687 15.6532 140.557 16.1834 140.498 16.3977C140.417 16.7029 140.169 16.8101 139.894 16.6976C138.206 16.012 137.419 14.1803 137.419 12.1129C137.419 8.70652 140.315 4.61993 146.052 4.61993C150.661 4.61993 153.697 7.93526 153.697 11.4916C153.697 16.1995 151.06 19.713 147.178 19.713C145.874 19.713 144.65 19.0114 144.229 18.2187C144.229 18.2187 143.528 20.9823 143.377 21.5179C143.124 22.4445 142.622 23.3657 142.164 24.0888C143.276 24.4146 144.429 24.5805 145.588 24.5815C152.257 24.5815 157.665 19.2095 157.665 12.5842C157.665 5.95891 152.263 0.581543 145.593 0.581543Z" fill="white"/>
</svg>
