<svg width="35" height="35" viewBox="0 0 35 35" fill="none" xmlns="http://www.w3.org/2000/svg">
<circle cx="17.7413" cy="17.7993" r="16.9523" fill="#292E36"/>
<circle cx="17.7414" cy="17.7994" r="15.136" fill="#E1B168"/>
<path d="M13.3095 22.5802C14.0108 22.2792 14.623 21.8218 15.146 21.2078C15.669 20.5939 15.984 19.9679 16.0909 19.3299C16.1504 18.9928 16.1801 18.7039 16.1801 18.4632C16.1801 18.1863 16.1504 17.9576 16.0909 17.777C15.5323 18.3669 14.825 18.6618 13.9692 18.6618C13.1134 18.6618 12.418 18.409 11.8831 17.9034C11.3482 17.3978 11.0808 16.6996 11.0808 15.8088C11.0808 14.9662 11.366 14.28 11.9366 13.7503C12.4953 13.2206 13.2085 12.9558 14.0762 12.9558C15.2648 12.9558 16.1326 13.3892 16.6793 14.2559C16.9289 14.6291 17.1251 15.0865 17.2677 15.6282C17.4104 16.182 17.4817 16.7478 17.4817 17.3256C17.4817 18.5896 17.1607 19.7452 16.5189 20.7925C15.877 21.8398 14.9201 22.6584 13.6483 23.2483L13.3095 22.5802ZM20.8337 22.5802C21.535 22.2792 22.1471 21.8218 22.6702 21.2078C23.1932 20.5939 23.5082 19.9679 23.6151 19.3299C23.6746 18.9928 23.7043 18.7039 23.7043 18.4632C23.7043 18.1863 23.6746 17.9576 23.6151 17.777C23.0565 18.3669 22.3492 18.6618 21.4934 18.6618C20.6376 18.6618 19.9422 18.409 19.4073 17.9034C18.8724 17.3978 18.605 16.6996 18.605 15.8088C18.605 14.9662 18.8902 14.28 19.4608 13.7503C20.0195 13.2206 20.7326 12.9558 21.6004 12.9558C22.789 12.9558 23.6567 13.3892 24.2035 14.2559C24.4531 14.6291 24.6493 15.0865 24.7919 15.6282C24.9345 16.182 25.0059 16.7478 25.0059 17.3256C25.0059 18.5896 24.6849 19.7452 24.043 20.7925C23.4012 21.8398 22.4443 22.6584 21.1724 23.2483L20.8337 22.5802Z" fill="#292E36"/>
</svg>
