<svg width="27" height="27" viewBox="0 0 27 27" fill="none" xmlns="http://www.w3.org/2000/svg">
<path d="M11.9005 12.2451L20.2823 2.33363C21.4886 0.9035 23.6027 0.692087 25.0701 1.83619L5.17264 25.3899C4.58815 26.0738 3.5684 26.1858 2.85955 25.6261C2.22532 24.8551 2.44917 24.0717 3.05853 23.3504L8.6547 16.7344C8.89098 16.4484 9.26406 16.3116 9.63714 16.3738L9.23919 16.2619C9.74906 16.3489 10.2714 16.1624 10.6071 15.7644L11.3782 14.8442C11.6766 14.4835 11.7886 14.011 11.6891 13.5633L11.6393 13.3643C11.5398 12.9664 11.6393 12.556 11.9005 12.2451Z" stroke="#E1B168" stroke-width="1.2" stroke-miterlimit="10" stroke-linecap="round"/>
<path d="M15.7251 14.0234L25.2883 23.7856C25.6738 24.1712 25.537 24.9173 24.9899 25.4521C24.4427 25.9868 23.6965 26.1112 23.311 25.7132L13.9219 16.1251" stroke="#E1B168" stroke-width="1.2" stroke-miterlimit="10" stroke-linecap="round"/>
<path d="M11.4345 13.6007L8.62402 10.7031" stroke="#E1B168" stroke-width="1.2" stroke-miterlimit="10" stroke-linecap="round"/>
<path d="M10.6006 8.77588L12.7023 10.9522" stroke="#E1B168" stroke-width="1.2" stroke-miterlimit="10" stroke-linecap="round"/>
<path d="M6.54286 8.00466L2.46387 3.83862" stroke="#E1B168" stroke-miterlimit="10" stroke-linecap="round"/>
<path d="M3.83887 2.48291L7.91786 6.64895" stroke="#E1B168" stroke-miterlimit="10" stroke-linecap="round"/>
<path d="M4.91732 1.01562L9.48131 5.6791C10.4513 6.66154 10.3518 8.32795 9.2699 9.38501C8.18797 10.4421 6.52156 10.5042 5.56399 9.5218L1 4.84589" stroke="#E1B168" stroke-width="1.2" stroke-miterlimit="10" stroke-linecap="round"/>
</svg>
