<svg width="27" height="27" viewBox="0 0 27 27" fill="none" xmlns="http://www.w3.org/2000/svg">
<path d="M21.2599 21.7319H5.01855" stroke="#E1B168" stroke-width="1.2" stroke-miterlimit="10" stroke-linecap="round"/>
<path d="M4.94238 15.0918V25.9608H21.2583V15.0918" stroke="#E1B168" stroke-width="1.2" stroke-miterlimit="10" stroke-linecap="round"/>
<path d="M19.9399 14.644C20.1513 14.6689 20.3752 14.6937 20.599 14.6937C23.4469 14.6937 25.7599 12.3931 25.7599 9.57012C25.7599 6.73472 23.4469 4.44651 20.599 4.44651C20.2757 4.44651 19.9524 4.48382 19.6415 4.546C18.3233 2.44432 15.9853 1.03906 13.2991 1.03906C10.6254 1.03906 8.28746 2.44433 6.96925 4.53356C6.70809 4.49625 6.44694 4.45895 6.16091 4.45895C3.31308 4.45895 1 6.75959 1 9.58255C1 12.4179 3.31308 14.7062 6.16091 14.7062" stroke="#E1B168" stroke-width="1.2" stroke-miterlimit="10" stroke-linecap="round"/>
<path d="M9.04492 17.1311V19.4069" stroke="#E1B168" stroke-width="1.2" stroke-miterlimit="10" stroke-linecap="round"/>
<path d="M16.792 17.1311V19.4069" stroke="#E1B168" stroke-width="1.2" stroke-miterlimit="10" stroke-linecap="round"/>
<path d="M12.9072 17.1311V19.4069" stroke="#E1B168" stroke-width="1.2" stroke-miterlimit="10" stroke-linecap="round"/>
</svg>
